<?xml version="1.0" encoding="utf-8"?>
<!-- Generator: Adobe Illustrator 21.0.0, SVG Export Plug-In . SVG Version: 6.00 Build 0)  -->
<svg version="1.1" id="Layer_1" xmlns="http://www.w3.org/2000/svg" xmlns:xlink="http://www.w3.org/1999/xlink" x="0px" y="0px"
	 viewBox="0 0 792 300" style="enable-background:new 0 0 792 300;" xml:space="preserve">
<style type="text/css">
	.st0{fill:#1D1926;}
	.st1{fill:#5D4C9F;}
</style>
<path class="st0" d="M306.3,240.1L255,172c17.3-6.2,35.3-21.4,35.3-53.3c0-45.1-33.8-57.5-51.8-57.7h-58.3v179.2H197v-65.4l38.3,1.1
	c0.5,0,1-0.1,1.5-0.1l48.7,64.4H306.3z M197,77.7h41.4c3.6,0.1,35.2,2,35.2,41c0,38.9-34.4,40.4-38,40.4L197,158V77.7z"/>
<g>
	<polygon class="st1" points="621.6,182.6 568.1,60.6 580,60.6 621.3,154.6 659.8,60.6 671.6,60.6 	"/>
</g>
<g>
	<rect x="330" y="61" class="st0" width="16.7" height="179.2"/>
</g>
<g>
	<path class="st0" d="M471.7,240.1c-48.7,0-88.3-39.6-88.3-88.3c0-48.7,39.6-88.3,88.3-88.3s88.3,39.6,88.3,88.3
		C559.9,200.5,520.3,240.1,471.7,240.1z M471.7,81.1c-39,0-70.8,31.8-70.8,70.8c0,39,31.8,70.8,70.8,70.8s70.8-31.8,70.8-70.8
		C542.5,112.8,510.7,81.1,471.7,81.1z"/>
</g>
<path class="st0" d="M102.6,61.9"/>
<path class="st0" d="M95.4,135.1c15.8,0,28.6-12.8,28.6-28.6c0-15.8-12.8-28.6-28.6-28.6H27.1V62v-0.1l75.9,0.1v0
	c21.3,3.7,37.7,22.1,37.7,44.5c0,13.9-6.4,26.2-16.2,34.5c16.3,8.4,27.5,25.3,27.5,44.8c0,25.2-18.5,45.9-42.6,49.7v0.1h-0.2
	c-0.2,0-0.5,0.1-0.7,0.2h-7.1h-8.4H27.1V110.9h16.7v108.8h1h48.1h8.4c18.7,0,33.9-15.2,33.9-33.9c0-18.7-15.2-33.9-33.9-33.9h-5.9
	H65.1v0v-16.7"/>
<path class="st1" d="M735.9,138c16.1-5.3,27.8-20.3,27.8-38.1c0-21.3-16.6-38.6-37.5-40h-15.8l-4.7,11.5h17.7
	c15.8,0,28.6,12.8,28.6,28.6c0,14.9-11.5,27-26.1,28.3l-4.8,0h-37.4l-1.7,4.1v0l-3.3,7.9l-16.8,41h12.7l16.8-41.1h31.5l31,41.1h14.5
	L735.9,138z"/>
</svg>
