# WaveFront *.obj file (generated by CINEMA 4D)

mtllib ./waterMesh.mtl

v -0.24294735491276 0.17713069915771 1.29816949367523
v -0.42631995677948 0.17713069915771 1.79395389556885
v 0.43131104111671 0.17713069915771 2.0253632068634
v 0.58622443675995 0.17713069915771 1.40463376045227
v 1.29381585121155 0.17713069915771 2.13439631462097
v 1.34627950191498 0.17713069915771 1.72603809833527
v -0.36621403694153 0.17713069915771 2.1928379535675
v 0.35656425356865 0.17713069915771 2.35750365257263
v 1.08617746829987 0.17713069915771 2.45404958724976
v -0.103934250772 0.17713069915771 2.55074095726013
v 0.27634394168854 0.17713069915771 2.72279858589172
v 0.68729323148727 0.17713069915771 2.70813345909119
v 0.77607977390289 0.17713069915771 0.67721682786942
v -0.20243445038795 0.17713069915771 0.4584436416626
v 1.77350831031799 0.17713069915771 0.90104413032532
v 1.009406208992 0.17713069915771 -0.1414660513401
v 0.19533045589924 0.17713069915771 -0.04244565963745
v 1.5746260881424 0.17713069915771 0.23810143768787
v 0.57094514369965 0.17713069915771 -0.15306615829468
v 0.30411705374718 0.17713069915771 0.5760286450386
v 0.1623964458704 0.17713069915771 1.31917035579681
v 0.02769074961543 0.17713069915771 1.93044579029083
v 0.01981124840677 0.17713069915771 2.27656126022339
v 0.06120374798775 0.17713069915771 2.62545800209045
v 1.34023010730743 0.17713069915771 0.01071854215115
v 1.24497282505035 0.17713069915771 0.79044497013092
v 0.99704533815384 0.17713069915771 1.53030014038086
v 0.83554726839066 0.17713069915771 2.09539580345154
v 0.69879043102264 0.17713069915771 2.40529084205627
v 0.5168731212616 0.17713069915771 2.71421504020691
v 1.62759160995483 0.17713069915771 1.32428920269012
v 1.13740599155426 0.17713069915771 1.17399764060974
v 0.68001437187195 0.17713069915771 1.05095565319061
v 0.22034744918346 0.17713069915771 0.94797402620316
v -0.26513805985451 0.17713069915771 0.8457418680191
v 1.71117103099823 0.17713069915771 0.54548382759094
v 1.29289722442627 0.17713069915771 0.4095211327076
v 0.87521475553513 0.17713069915771 0.29143813252449
v 0.42247545719147 0.17713069915771 0.22048063576221
v -0.06037545204163 0.17713069915771 0.16752104461193
v -0.35168594121933 0.17713069915771 1.53589367866516
v 0.08596064895391 0.17713069915771 1.62590479850769
v 0.50544196367264 0.17713069915771 1.71810829639435
v 0.91827136278152 0.17713069915771 1.81653165817261
v 1.33505117893219 0.17713069915771 1.92232298851013
# 45 vertices

vn 0 1 0
# 1 normal

vt 0.32224500179291 0.48807203769684 0
vt 0.29566699266434 0.38141405582428 0
vt 0.44152998924255 0.34935200214386 0
vt 0.46961998939514 0.45835399627686 0
vt 0.61247098445892 0.41465699672699 0
vt 0.58508002758026 0.31512904167175 0
vt 0.73000299930573 0.2783430814743 0
vt 0.73390698432922 0.34659504890442 0
vt 0.41575300693512 0.24251306056976 0
vt 0.27540498971939 0.27551805973053 0
vt 0.27266600728035 0.15516602993011 0
vt 0.38976201415062 0.12702107429504 0
vt 0.7156640291214 0.20459997653961 0
vt 0.55631399154663 0.21816205978394 0
vt 0.50876098871231 0.1104040145874 0
vt 0.6434640288353 0.09345006942749 0
vt 0.28705900907516 0.03384804725647 0
vt 0.36186799407005 0 0
vt 0.4455049932003 0.00298500061035 0
vt 0.504763007164 0.00509905815125 0
vt 0.5022320151329 0.58133602142334 0
vt 0.34239599108696 0.61714500188828 0
vt 0.83172500133514 0.48629200458527 0
vt 0.66127699613571 0.53855103254318 0
vt 0.37152498960495 0.74647802114487 0
vt 0.5356360077858 0.71129304170609 0
vt 0.57010799646378 0.84543597698212 0
vt 0.41268101334572 0.87011003494263 0
vt 0.69868099689484 0.67192101478577 0
vt 0.882463991642 0.63346302509308 0
vt 0.86078798770905 0.75709903240204 0
vt 0.71534502506256 0.8043760061264 0
vt 0.19538600742817 0.78736501932144 0
vt 0.24478299915791 0.88852500915527 0
vt 0.18129900097847 0.49537408351898 0
vt 0.17358300089836 0.65269303321838 0
vt 0.14348800480366 0.41271197795868 0
vt 0.11753600090742 0.32297897338867 0
vt 0.13843600451946 0.18427908420563 0
vt 0.22963699698448 0.05982804298401 0
vt 0.81330800056458 0.86398303508759 0
vt 0.73180401325226 0.94304901361465 0
vt 0.61676901578903 0.99596601724625 0
vt 0.4643070101738 1 0
vt 0.33369699120522 0.96153497695923 0
# 45 texture coordinates

o waterMesh.obj
usemtl default
f 21/1/1 42/2/1 43/3/1 4/4/1
f 27/5/1 44/6/1 45/7/1 6/8/1
f 3/9/1 22/10/1 23/11/1 8/12/1
f 5/13/1 28/14/1 29/15/1 9/16/1
f 8/12/1 23/11/1 24/17/1 11/18/1
f 9/16/1 29/15/1 30/19/1 12/20/1
f 21/1/1 4/4/1 33/21/1 34/22/1
f 27/5/1 6/8/1 31/23/1 32/24/1
f 20/25/1 13/26/1 38/27/1 39/28/1
f 26/29/1 15/30/1 36/31/1 37/32/1
f 14/33/1 20/25/1 39/28/1 40/34/1
f 1/35/1 21/1/1 34/22/1 35/36/1
f 1/35/1 41/37/1 42/2/1 21/1/1
f 23/11/1 22/10/1 2/38/1 7/39/1
f 24/17/1 23/11/1 7/39/1 10/40/1
f 13/26/1 26/29/1 37/32/1 38/27/1
f 4/4/1 27/5/1 32/24/1 33/21/1
f 4/4/1 43/3/1 44/6/1 27/5/1
f 29/15/1 28/14/1 3/9/1 8/12/1
f 30/19/1 29/15/1 8/12/1 11/18/1
f 32/24/1 31/23/1 15/30/1 26/29/1
f 33/21/1 32/24/1 26/29/1 13/26/1
f 34/22/1 33/21/1 13/26/1 20/25/1
f 35/36/1 34/22/1 20/25/1 14/33/1
f 37/32/1 36/31/1 18/41/1 25/42/1
f 38/27/1 37/32/1 25/42/1 16/43/1
f 39/28/1 38/27/1 16/43/1 19/44/1
f 40/34/1 39/28/1 19/44/1 17/45/1
f 41/37/1 2/38/1 22/10/1 42/2/1
f 43/3/1 42/2/1 22/10/1 3/9/1
f 44/6/1 43/3/1 3/9/1 28/14/1
f 45/7/1 44/6/1 28/14/1 5/13/1

